G04 ================== begin FILE IDENTIFICATION RECORD ==================*
G04 Layout Name:  C:/Users/user/Desktop/PULSE MODULATION/pulse modulation.brd*
G04 Film Name:    AutoSilkT*
G04 File Format:  Gerber RS274X*
G04 File Origin:  Cadence Allegro 17.2-P019*
G04 Origin Date:  Wed Jul 31 12:24:11 2019*
G04 *
G04 Layer:  MANUFACTURING/AUTOSILK_TOP*
G04 Layer:  BOARD GEOMETRY/DESIGN_OUTLINE*
G04 *
G04 Offset:    (0.000 0.000)*
G04 Mirror:    No*
G04 Mode:      Positive*
G04 Rotation:  0*
G04 FullContactRelief:  No*
G04 UndefLineWidth:     0.000*
G04 ================== end FILE IDENTIFICATION RECORD ====================*
%FSLAX25Y25*MOMM*%
%IR0*IPPOS*OFA0.00000B0.00000*MIA0B0*SFA1.00000B1.00000*%
%ADD10C,.203*%
G75*
%LPD*%
G75*
G54D10*
G01X4127500Y698500D02*
Y1206500D01*
G01X4066000Y2542000D02*
X4068100Y2540000D01*
G01X4008400Y2628600D02*
X4066000Y2542000D01*
G01X3988100Y2730500D02*
X4008400Y2628600D01*
G01X4066000Y2542000D02*
X4443000D01*
G01X4008400Y2832400D02*
X3988100Y2730500D01*
G01X4066000Y2919000D02*
X4008400Y2832400D01*
G01X4152600Y2976600D02*
X4066000Y2919000D01*
G01X4254500Y2996900D02*
X4152600Y2976600D01*
G01X4381500Y1206500D02*
Y698500D01*
G01X4500600Y2628600D02*
X4520900Y2730500D01*
G01X4443000Y2542000D02*
X4500600Y2628600D01*
G01X4356400Y2976600D02*
X4254500Y2996900D01*
G01X4443000Y2919000D02*
X4356400Y2976600D01*
G01X4500600Y2832400D02*
X4443000Y2919000D01*
G01X4520900Y2730500D02*
X4500600Y2832400D01*
G01X4191000Y3556000D02*
Y4064000D01*
G01X4445000D02*
Y3556000D01*
G01X5524500Y2540000D02*
Y2032000D01*
G01X5270500D02*
Y2540000D01*
M02*
