G04 ================== begin FILE IDENTIFICATION RECORD ==================*
G04 Layout Name:  C:/Users/user/Desktop/PULSE MODULATION/pulse modulation.brd*
G04 Film Name:    SilkT*
G04 File Format:  Gerber RS274X*
G04 File Origin:  Cadence Allegro 17.2-P019*
G04 Origin Date:  Wed Jul 31 12:24:11 2019*
G04 *
G04 Layer:  REF DES/SILKSCREEN_TOP*
G04 Layer:  PACKAGE GEOMETRY/SILKSCREEN_TOP*
G04 Layer:  BOARD GEOMETRY/SILKSCREEN_TOP*
G04 *
G04 Offset:    (0.000 0.000)*
G04 Mirror:    No*
G04 Mode:      Positive*
G04 Rotation:  0*
G04 FullContactRelief:  No*
G04 UndefLineWidth:     0.200*
G04 ================== end FILE IDENTIFICATION RECORD ====================*
%FSLAX25Y25*MOMM*%
%IR0*IPPOS*OFA0.00000B0.00000*MIA0B0*SFA1.00000B1.00000*%
%ADD10C,.4*%
%ADD11C,.203*%
%ADD12C,.2*%
G75*
%LPD*%
G75*
G54D10*
G01X4733800Y290000D02*
X4706800D01*
Y690000D01*
X4733800D01*
G01X4723000Y496700D02*
X4706800D01*
G01X4776100Y290000D02*
Y690000D01*
G01X4821800Y470000D02*
X4843400D01*
X4841400Y516700D01*
X4838000Y543300D01*
X4833300Y556700D01*
X4828500Y550000D01*
X4824500Y530000D01*
X4821800Y483300D01*
X4820400Y443300D01*
Y403300D01*
X4821800Y363300D01*
X4825100Y323300D01*
X4829200Y296700D01*
X4833900Y290000D01*
X4838700Y303300D01*
X4843400Y343300D01*
G01X4898500Y523300D02*
X4893800Y550000D01*
X4889700Y556700D01*
X4884300Y543300D01*
X4880300Y516700D01*
X4877600Y470000D01*
X4876900Y423300D01*
X4877600Y376700D01*
X4880300Y336700D01*
X4884300Y303300D01*
X4889700Y290000D01*
X4894500Y303300D01*
X4898500Y330000D01*
G01X4943500Y690000D02*
Y290000D01*
G01X4934000Y556700D02*
X4953000D01*
G01X4989800Y290000D02*
Y556700D01*
G01Y503300D02*
X4993200Y530000D01*
X4996600Y550000D01*
X5001300Y556700D01*
X5004700Y550000D01*
X5008800Y530000D01*
G01X5055100Y290000D02*
X5051000Y296700D01*
X5047000Y323300D01*
X5044300Y370000D01*
X5042900Y423300D01*
X5044300Y476700D01*
X5047000Y523300D01*
X5051000Y550000D01*
X5055100Y556700D01*
X5059200Y550000D01*
X5063200Y523300D01*
X5065900Y476700D01*
X5066600Y423300D01*
X5065900Y370000D01*
X5063200Y323300D01*
X5059200Y296700D01*
X5055100Y290000D01*
G01X5099400D02*
Y556700D01*
G01Y490000D02*
X5102100Y523300D01*
X5106200Y550000D01*
X5111600Y556700D01*
X5116300Y550000D01*
X5120400Y523300D01*
X5122400Y476700D01*
Y290000D01*
G01X5166700Y556700D02*
Y290000D01*
G01Y663300D02*
X5165300Y670000D01*
Y683300D01*
X5166700Y690000D01*
X5168100Y683300D01*
Y670000D01*
X5166700Y663300D01*
G01X5233300Y523300D02*
X5228600Y550000D01*
X5224500Y556700D01*
X5219100Y543300D01*
X5215100Y516700D01*
X5212400Y470000D01*
X5211700Y423300D01*
X5212400Y376700D01*
X5215100Y336700D01*
X5219100Y303300D01*
X5224500Y290000D01*
X5229300Y303300D01*
X5233300Y330000D01*
G01X5320600Y290000D02*
Y690000D01*
X5336800D01*
X5342200Y670000D01*
X5346300Y623300D01*
X5347600Y570000D01*
X5346300Y516700D01*
X5342900Y476700D01*
X5336800Y456700D01*
X5320600D01*
G01X5404800Y656700D02*
X5400700Y676700D01*
X5396000Y690000D01*
X5390600D01*
X5384500Y670000D01*
X5379800Y636700D01*
X5376400Y596700D01*
X5373700Y530000D01*
X5373000Y470000D01*
X5374300Y410000D01*
X5376400Y370000D01*
X5380400Y330000D01*
X5385200Y303300D01*
X5389900Y290000D01*
X5394600D01*
X5399400Y303300D01*
X5403400Y323300D01*
X5406800Y350000D01*
G01X5451100Y503300D02*
X5453800Y523300D01*
X5455800Y556700D01*
X5457200Y603300D01*
X5455800Y643300D01*
X5453100Y670000D01*
X5448400Y690000D01*
X5430100D01*
Y290000D01*
X5452500D01*
X5457200Y316700D01*
X5459900Y356700D01*
X5461300Y403300D01*
X5459900Y450000D01*
X5455800Y490000D01*
X5451100Y503300D01*
X5430100D01*
G01X4686800Y6380000D02*
Y6780000D01*
X4703000D01*
X4708400Y6760000D01*
X4712500Y6713300D01*
X4713800Y6660000D01*
X4712500Y6606700D01*
X4709100Y6566700D01*
X4703000Y6546700D01*
X4686800D01*
G01X4741200Y6780000D02*
Y6493300D01*
X4743900Y6433300D01*
X4749300Y6393300D01*
X4756100Y6380000D01*
X4762900Y6393300D01*
X4768300Y6433300D01*
X4771000Y6493300D01*
Y6780000D01*
G01X4798400D02*
Y6380000D01*
X4825400D01*
G01X4853500Y6433300D02*
X4858900Y6400000D01*
X4865000Y6380000D01*
X4870400D01*
X4875800Y6400000D01*
X4879900Y6433300D01*
X4881900Y6480000D01*
X4880600Y6526700D01*
X4877200Y6566700D01*
X4871100Y6593300D01*
X4863000Y6606700D01*
X4858200Y6633300D01*
X4856200Y6680000D01*
X4857600Y6726700D01*
X4860900Y6760000D01*
X4865700Y6780000D01*
X4870400D01*
X4875100Y6766700D01*
X4879200Y6733300D01*
G01X4937000Y6380000D02*
X4910000D01*
Y6780000D01*
X4937000D01*
G01X4926200Y6586700D02*
X4910000D01*
G01X5017500Y6380000D02*
Y6780000D01*
X5035100Y6446700D01*
X5052700Y6780000D01*
Y6380000D01*
G01X5090900D02*
X5085500Y6386700D01*
X5080800Y6413300D01*
X5076700Y6453300D01*
X5074000Y6500000D01*
X5072600Y6553300D01*
Y6606700D01*
X5074000Y6660000D01*
X5076700Y6706700D01*
X5080800Y6746700D01*
X5085500Y6773300D01*
X5090900Y6780000D01*
X5096300Y6773300D01*
X5101000Y6746700D01*
X5105100Y6706700D01*
X5107800Y6660000D01*
X5109200Y6606700D01*
Y6553300D01*
X5107800Y6500000D01*
X5105100Y6453300D01*
X5101000Y6413300D01*
X5096300Y6386700D01*
X5090900Y6380000D01*
G01X5131800D02*
Y6780000D01*
X5145300D01*
X5150800Y6760000D01*
X5154800Y6733300D01*
X5158200Y6693300D01*
X5160900Y6646700D01*
X5161600Y6580000D01*
X5160900Y6513300D01*
X5158200Y6466700D01*
X5154800Y6426700D01*
X5150800Y6400000D01*
X5145300Y6380000D01*
X5131800D01*
G01X5187600Y6780000D02*
Y6493300D01*
X5190300Y6433300D01*
X5195700Y6393300D01*
X5202500Y6380000D01*
X5209300Y6393300D01*
X5214700Y6433300D01*
X5217400Y6493300D01*
Y6780000D01*
G01X5244800D02*
Y6380000D01*
X5271800D01*
G01X5297200D02*
X5314100Y6780000D01*
X5331000Y6380000D01*
G01X5324900Y6520000D02*
X5303300D01*
G01X5369900Y6780000D02*
Y6380000D01*
G01X5354300Y6780000D02*
X5385500D01*
G01X5417600D02*
X5433800D01*
G01X5425700D02*
Y6380000D01*
G01X5417600D02*
X5433800D01*
G01X5481500D02*
X5476100Y6386700D01*
X5471400Y6413300D01*
X5467300Y6453300D01*
X5464600Y6500000D01*
X5463200Y6553300D01*
Y6606700D01*
X5464600Y6660000D01*
X5467300Y6706700D01*
X5471400Y6746700D01*
X5476100Y6773300D01*
X5481500Y6780000D01*
X5486900Y6773300D01*
X5491600Y6746700D01*
X5495700Y6706700D01*
X5498400Y6660000D01*
X5499800Y6606700D01*
Y6553300D01*
X5498400Y6500000D01*
X5495700Y6453300D01*
X5491600Y6413300D01*
X5486900Y6386700D01*
X5481500Y6380000D01*
G01X5521700D02*
Y6780000D01*
X5552900Y6380000D01*
Y6780000D01*
G54D11*
G01X4127500Y698500D02*
Y1206500D01*
G01X4066000Y2542000D02*
X4443000D01*
G01X3988100Y2730500D02*
X4008400Y2628600D01*
G01D02*
X4066000Y2542000D01*
G01D02*
X4068100Y2540000D01*
G01X4254500Y2996900D02*
X4152600Y2976600D01*
G01D02*
X4066000Y2919000D01*
G01D02*
X4008400Y2832400D01*
G01D02*
X3988100Y2730500D01*
G01X4381500Y1206500D02*
Y698500D01*
G01X4443000Y2542000D02*
X4500600Y2628600D01*
G01D02*
X4520900Y2730500D01*
G01D02*
X4500600Y2832400D01*
G01D02*
X4443000Y2919000D01*
G01D02*
X4356400Y2976600D01*
G01D02*
X4254500Y2996900D01*
G01X4445000Y4064000D02*
Y3556000D01*
G01X4191000D02*
Y4064000D01*
G01X5270500Y2032000D02*
Y2540000D01*
G01X5524500D02*
Y2032000D01*
G54D12*
G01X373000Y3127000D02*
X627000D01*
Y2111000D01*
X373000D01*
Y3127000D01*
G01X373100Y3205400D02*
X381100Y3192700D01*
X390800Y3184200D01*
X402000Y3180000D01*
X414900Y3184200D01*
X424600Y3192700D01*
X434200Y3205400D01*
X437400Y3222300D01*
Y3307000D01*
G01X534700Y3180000D02*
Y3307000D01*
X515400Y3281600D01*
G01Y3180000D02*
X554000D01*
G01X1069900Y3577000D02*
Y3486000D01*
X1076300Y3466900D01*
X1089200Y3454200D01*
X1105200Y3450000D01*
X1121300Y3454200D01*
X1134200Y3466900D01*
X1140600Y3486000D01*
Y3577000D01*
G01X1199400Y3469000D02*
X1209000Y3458500D01*
X1220300Y3452100D01*
X1234700Y3450000D01*
X1249200Y3454200D01*
X1260500Y3462700D01*
X1268500Y3477500D01*
X1270100Y3494400D01*
X1266900Y3511400D01*
X1258900Y3522000D01*
X1247600Y3530400D01*
X1236400Y3532500D01*
X1225100Y3530400D01*
X1210600Y3522000D01*
X1215400Y3577000D01*
X1258900D01*
G01X371100Y3775700D02*
X376000Y3767900D01*
X381800Y3762600D01*
X388700Y3760000D01*
X396400Y3762600D01*
X402300Y3767900D01*
X408100Y3775700D01*
X410100Y3786200D01*
Y3838700D01*
G01X447900Y3775700D02*
X453700Y3766600D01*
X461500Y3761300D01*
X470300Y3760000D01*
X478100Y3761300D01*
X485800Y3767900D01*
X490700Y3775700D01*
X491700Y3783600D01*
X489700Y3792800D01*
X482900Y3799300D01*
X476100Y3802000D01*
X467400D01*
G01X476100D02*
X482000Y3805900D01*
X486800Y3812500D01*
X488800Y3820300D01*
X486800Y3828200D01*
X482000Y3834800D01*
X473200Y3838700D01*
X464400Y3837400D01*
X455700Y3832100D01*
G01X373000Y4627000D02*
X627000D01*
Y3865000D01*
X373000D01*
Y4627000D01*
G01X1270000Y3213100D02*
Y3365500D01*
X1333500Y3429000D01*
Y3556000D01*
X1270000Y3619500D01*
Y3771900D01*
X2286000D01*
Y3213100D01*
X1270000D01*
G01X2260600Y2222500D02*
X2413000D01*
X2476500Y2159000D01*
X2603500D01*
X2667000Y2222500D01*
X2819400D01*
Y1206500D01*
X2260600D01*
Y2222500D01*
G01X2311400Y5651500D02*
X3022600D01*
Y5397500D01*
X2311400D01*
Y5651500D01*
G01X2581100Y5710000D02*
Y5788700D01*
X2605500D01*
X2613300Y5784800D01*
X2618100Y5779500D01*
X2620100Y5769000D01*
X2618100Y5758500D01*
X2612300Y5752000D01*
X2605500Y5748000D01*
X2581100D01*
G01X2605500D02*
X2620100Y5710000D01*
G01X2679300D02*
X2686100Y5711300D01*
X2693900Y5715200D01*
X2698800Y5721800D01*
X2700700Y5731000D01*
X2698800Y5740200D01*
X2692900Y5748000D01*
X2684200Y5752000D01*
X2674400D01*
X2668600Y5754600D01*
X2663700Y5761200D01*
X2661800Y5770300D01*
X2664700Y5779500D01*
X2671500Y5786100D01*
X2679300Y5788700D01*
X2687100Y5786100D01*
X2693900Y5779500D01*
X2696800Y5770300D01*
X2694900Y5761200D01*
X2690000Y5754600D01*
X2684200Y5752000D01*
X2674400D01*
X2665700Y5748000D01*
X2659800Y5740200D01*
X2657900Y5731000D01*
X2659800Y5721800D01*
X2664700Y5715200D01*
X2672500Y5711300D01*
X2679300Y5710000D01*
G01X2929900Y1667000D02*
Y1576000D01*
X2936300Y1556900D01*
X2949200Y1544200D01*
X2965200Y1540000D01*
X2981300Y1544200D01*
X2994200Y1556900D01*
X3000600Y1576000D01*
Y1667000D01*
G01X3094700Y1540000D02*
Y1667000D01*
X3075400Y1641600D01*
G01Y1540000D02*
X3114000D01*
G01X2857500Y3111500D02*
X3492500D01*
Y2603500D01*
X2857500D01*
Y3111500D01*
G01X2951100Y4610000D02*
Y4688700D01*
X2975500D01*
X2983300Y4684800D01*
X2988100Y4679500D01*
X2990100Y4669000D01*
X2988100Y4658500D01*
X2982300Y4652000D01*
X2975500Y4648000D01*
X2951100D01*
G01X2975500D02*
X2990100Y4610000D01*
G01X3032800Y4619200D02*
X3039600Y4612600D01*
X3047400Y4610000D01*
X3055100Y4612600D01*
X3062000Y4620500D01*
X3066800Y4632300D01*
X3068800Y4644100D01*
Y4658500D01*
X3066800Y4670300D01*
X3062000Y4680800D01*
X3056100Y4686100D01*
X3049300Y4688700D01*
X3041500Y4686100D01*
X3035700Y4680800D01*
X3031800Y4673000D01*
X3029800Y4662500D01*
X3031800Y4653300D01*
X3036600Y4644100D01*
X3042500Y4638900D01*
X3049300Y4637500D01*
X3057100Y4640200D01*
X3062900Y4646700D01*
X3068800Y4658500D01*
G01X3365500Y4927600D02*
Y4216400D01*
X3111500D01*
Y4927600D01*
X3365500D01*
G01X3561100Y2280000D02*
Y2358700D01*
X3585500D01*
X3593300Y2354800D01*
X3598100Y2349500D01*
X3600100Y2339000D01*
X3598100Y2328500D01*
X3592300Y2322000D01*
X3585500Y2318000D01*
X3561100D01*
G01X3585500D02*
X3600100Y2280000D01*
G01X3640800Y2345600D02*
X3646600Y2353500D01*
X3653500Y2357400D01*
X3661200Y2358700D01*
X3671000Y2356100D01*
X3677800Y2349500D01*
X3679700Y2341600D01*
X3678800Y2333800D01*
X3674900Y2327200D01*
X3655400Y2314100D01*
X3646600Y2304900D01*
X3640800Y2291800D01*
X3638900Y2280000D01*
X3679700D01*
G01X3517900Y2222500D02*
X4229100D01*
Y1968500D01*
X3517900D01*
Y2222500D01*
G01X3563100Y2850000D02*
Y2977000D01*
X3603300D01*
X3616200Y2970600D01*
X3624200Y2962200D01*
X3627400Y2945200D01*
X3624200Y2928300D01*
X3614600Y2917700D01*
X3603300Y2911400D01*
X3563100D01*
G01X3603300D02*
X3627400Y2850000D01*
G01X3689400Y2869000D02*
X3699000Y2858500D01*
X3710300Y2852100D01*
X3724700Y2850000D01*
X3739200Y2854200D01*
X3750500Y2862700D01*
X3758500Y2877500D01*
X3760100Y2894400D01*
X3756900Y2911400D01*
X3748900Y2922000D01*
X3737600Y2930400D01*
X3726400Y2932500D01*
X3715100Y2930400D01*
X3700600Y2922000D01*
X3705400Y2977000D01*
X3748900D01*
G01X3913200Y3804600D02*
X3899000Y3814200D01*
X3882400Y3820500D01*
X3863500D01*
X3842100Y3811000D01*
X3825600Y3795100D01*
X3813700Y3776000D01*
X3804200Y3744300D01*
X3801800Y3715700D01*
X3806600Y3687100D01*
X3813700Y3668100D01*
X3827900Y3649000D01*
X3844500Y3636300D01*
X3861100Y3630000D01*
X3877700D01*
X3894300Y3636300D01*
X3908500Y3645900D01*
X3920400Y3658600D01*
G01X3999500Y3668100D02*
X4013700Y3645900D01*
X4032600Y3633200D01*
X4054000Y3630000D01*
X4072900Y3633200D01*
X4091900Y3649000D01*
X4103700Y3668100D01*
X4106100Y3687100D01*
X4101400Y3709400D01*
X4084800Y3725200D01*
X4068200Y3731600D01*
X4046900D01*
G01X4068200D02*
X4082400Y3741100D01*
X4094300Y3757000D01*
X4099000Y3776000D01*
X4094300Y3795100D01*
X4082400Y3811000D01*
X4061100Y3820500D01*
X4039800Y3817300D01*
X4018400Y3804600D01*
G01X4603200Y924600D02*
X4589000Y934200D01*
X4572400Y940500D01*
X4553500D01*
X4532100Y931000D01*
X4515600Y915100D01*
X4503700Y896000D01*
X4494200Y864300D01*
X4491800Y835700D01*
X4496600Y807100D01*
X4503700Y788100D01*
X4517900Y769000D01*
X4534500Y756300D01*
X4551100Y750000D01*
X4567700D01*
X4584300Y756300D01*
X4598500Y765900D01*
X4610400Y778600D01*
G01X4741600Y750000D02*
Y940500D01*
X4713200Y902400D01*
G01Y750000D02*
X4770000D01*
G01X4571100Y1830000D02*
Y1908700D01*
X4595500D01*
X4603300Y1904800D01*
X4608100Y1899500D01*
X4610100Y1889000D01*
X4608100Y1878500D01*
X4602300Y1872000D01*
X4595500Y1868000D01*
X4571100D01*
G01X4595500D02*
X4610100Y1830000D01*
G01X4681000D02*
Y1908700D01*
X4645000Y1852300D01*
X4693600D01*
G01X4533900Y1778000D02*
X5245100D01*
Y1524000D01*
X4533900D01*
Y1778000D01*
G01X4331100Y2330000D02*
X4312100Y2333200D01*
X4295600Y2345900D01*
X4281300Y2364900D01*
X4271800Y2387100D01*
X4267100Y2412500D01*
Y2438000D01*
X4271800Y2463400D01*
X4281300Y2485600D01*
X4295600Y2504600D01*
X4312100Y2517300D01*
X4331100Y2520500D01*
X4350100Y2517300D01*
X4366600Y2504600D01*
X4380900Y2485600D01*
X4390400Y2463400D01*
X4395100Y2438000D01*
Y2412500D01*
X4390400Y2387100D01*
X4380900Y2364900D01*
X4366600Y2345900D01*
X4350100Y2333200D01*
X4331100Y2330000D01*
G01X4350100Y2380800D02*
X4378500Y2330000D01*
G01X4521600D02*
Y2520500D01*
X4493200Y2482400D01*
G01Y2330000D02*
X4550000D01*
G01X4973200Y2464600D02*
X4959000Y2474200D01*
X4942400Y2480500D01*
X4923500D01*
X4902100Y2471000D01*
X4885600Y2455100D01*
X4873700Y2436000D01*
X4864200Y2404300D01*
X4861800Y2375700D01*
X4866600Y2347100D01*
X4873700Y2328100D01*
X4887900Y2309000D01*
X4904500Y2296300D01*
X4921100Y2290000D01*
X4937700D01*
X4954300Y2296300D01*
X4968500Y2305900D01*
X4980400Y2318600D01*
G01X5066600Y2448800D02*
X5080800Y2467800D01*
X5097400Y2477300D01*
X5116300Y2480500D01*
X5140000Y2474200D01*
X5156600Y2458300D01*
X5161400Y2439200D01*
X5159000Y2420200D01*
X5149500Y2404300D01*
X5102100Y2372500D01*
X5080800Y2350300D01*
X5066600Y2318600D01*
X5061800Y2290000D01*
X5161400D01*
G01X4769900Y6027000D02*
Y5936000D01*
X4776300Y5916900D01*
X4789200Y5904200D01*
X4805200Y5900000D01*
X4821300Y5904200D01*
X4834200Y5916900D01*
X4840600Y5936000D01*
Y6027000D01*
G01X4899400Y5925400D02*
X4909000Y5910600D01*
X4921900Y5902100D01*
X4936400Y5900000D01*
X4949200Y5902100D01*
X4962100Y5912700D01*
X4970100Y5925400D01*
X4971700Y5938100D01*
X4968500Y5952900D01*
X4957300Y5963500D01*
X4946000Y5967700D01*
X4931500D01*
G01X4946000D02*
X4955700Y5974100D01*
X4963700Y5984700D01*
X4966900Y5997400D01*
X4963700Y6010100D01*
X4955700Y6020600D01*
X4941200Y6027000D01*
X4926700Y6024900D01*
X4912200Y6016400D01*
G01X5651500Y1676400D02*
Y2387600D01*
X5905500D01*
Y1676400D01*
X5651500D01*
G01X4991100Y5778500D02*
X5143500D01*
X5207000Y5715000D01*
X5334000D01*
X5397500Y5778500D01*
X5549900D01*
Y4762500D01*
X4991100D01*
Y5778500D01*
G01X6096000Y1739900D02*
Y2451100D01*
X6350000D01*
Y1739900D01*
X6096000D01*
G01X6161100Y2500000D02*
Y2578700D01*
X6185500D01*
X6193300Y2574800D01*
X6198100Y2569500D01*
X6200100Y2559000D01*
X6198100Y2548500D01*
X6192300Y2542000D01*
X6185500Y2538000D01*
X6161100D01*
G01X6185500D02*
X6200100Y2500000D01*
G01X6259300D02*
Y2578700D01*
X6247600Y2563000D01*
G01Y2500000D02*
X6271000D01*
G01X5701100Y2440000D02*
Y2518700D01*
X5725500D01*
X5733300Y2514800D01*
X5738100Y2509500D01*
X5740100Y2499000D01*
X5738100Y2488500D01*
X5732300Y2482000D01*
X5725500Y2478000D01*
X5701100D01*
G01X5725500D02*
X5740100Y2440000D01*
G01X5797400D02*
X5799300Y2457100D01*
X5802200Y2471500D01*
X5806100Y2484600D01*
X5811000Y2499000D01*
X5818800Y2518700D01*
X5779800D01*
G01X6415400Y6130000D02*
Y6193500D01*
X6428900D01*
X6434400Y6190300D01*
X6438400Y6186100D01*
X6441800Y6179700D01*
X6444500Y6172300D01*
X6445200Y6161700D01*
X6444500Y6151200D01*
X6441800Y6143800D01*
X6438400Y6137400D01*
X6434400Y6133200D01*
X6428900Y6130000D01*
X6415400D01*
G01X6486100D02*
Y6193500D01*
X6478000Y6180800D01*
G01Y6130000D02*
X6494200D01*
G01X6350000Y6451600D02*
X6756400D01*
Y6248400D01*
X6350000D01*
Y6451600D01*
G01X6464300D02*
Y6248400D01*
G01X6451600Y6451600D02*
Y6248400D01*
G01X7340600Y1968500D02*
X7493000D01*
X7556500Y1905000D01*
X7683500D01*
X7747000Y1968500D01*
X7899400D01*
Y952500D01*
X7340600D01*
Y1968500D01*
G01X7810500Y2286000D02*
Y2921000D01*
X8318500D01*
Y2286000D01*
X7810500D01*
G01X7822800Y2951500D02*
Y3078500D01*
X7863000D01*
X7875900Y3072100D01*
X7883900Y3063700D01*
X7887100Y3046700D01*
X7883900Y3029800D01*
X7874300Y3019200D01*
X7863000Y3012900D01*
X7822800D01*
G01X7863000D02*
X7887100Y2951500D01*
G01X7953900Y3004400D02*
X7965100Y3019200D01*
X7974800Y3027700D01*
X7987700Y3031900D01*
X7998900Y3027700D01*
X8007000Y3019200D01*
X8013400Y3006500D01*
X8015000Y2991700D01*
X8013400Y2979000D01*
X8007000Y2966300D01*
X7997300Y2955700D01*
X7986100Y2951500D01*
X7973200Y2955700D01*
X7961900Y2968400D01*
X7955500Y2987500D01*
X7953900Y3008600D01*
X7957100Y3036200D01*
X7961900Y3051000D01*
X7970000Y3065800D01*
X7981200Y3076400D01*
X7992500Y3078500D01*
X8003800Y3074300D01*
X8011800Y3063700D01*
G01X7213600Y5461000D02*
X7366000D01*
X7429500Y5397500D01*
X7556500D01*
X7620000Y5461000D01*
X7772400D01*
Y4445000D01*
X7213600D01*
Y5461000D01*
G01X7419900Y5597000D02*
Y5506000D01*
X7426300Y5486900D01*
X7439200Y5474200D01*
X7455200Y5470000D01*
X7471300Y5474200D01*
X7484200Y5486900D01*
X7490600Y5506000D01*
Y5597000D01*
G01X7604100Y5470000D02*
Y5597000D01*
X7544500Y5506000D01*
X7625000D01*
G01X7371800Y6120000D02*
Y6198700D01*
X7396200D01*
X7404000Y6194800D01*
X7408800Y6189500D01*
X7410800Y6179000D01*
X7408800Y6168500D01*
X7403000Y6162000D01*
X7396200Y6158000D01*
X7371800D01*
G01X7396200D02*
X7410800Y6120000D01*
G01X7470000D02*
Y6198700D01*
X7458300Y6183000D01*
G01Y6120000D02*
X7481700D01*
G01X7548700Y6198700D02*
X7540900Y6196100D01*
X7535100Y6189500D01*
X7531200Y6181600D01*
X7528300Y6171200D01*
X7527300Y6159300D01*
X7528300Y6147500D01*
X7531200Y6137100D01*
X7535100Y6129200D01*
X7540900Y6122600D01*
X7548700Y6120000D01*
X7556500Y6122600D01*
X7562300Y6129200D01*
X7566200Y6137100D01*
X7569100Y6147500D01*
X7570100Y6159300D01*
X7569100Y6171200D01*
X7566200Y6181600D01*
X7562300Y6189500D01*
X7556500Y6196100D01*
X7548700Y6198700D01*
G01X7264400Y6032500D02*
X7975600D01*
Y5778500D01*
X7264400D01*
Y6032500D01*
G01X8039900Y1497000D02*
Y1406000D01*
X8046300Y1386900D01*
X8059200Y1374200D01*
X8075200Y1370000D01*
X8091300Y1374200D01*
X8104200Y1386900D01*
X8110600Y1406000D01*
Y1497000D01*
G01X8174200Y1475800D02*
X8183800Y1488500D01*
X8195100Y1494900D01*
X8208000Y1497000D01*
X8224100Y1492800D01*
X8235300Y1482200D01*
X8238500Y1469500D01*
X8236900Y1456800D01*
X8230500Y1446200D01*
X8198300Y1425000D01*
X8183800Y1410200D01*
X8174200Y1389000D01*
X8171000Y1370000D01*
X8238500D01*
G01X8318500Y3962400D02*
Y4673600D01*
X8572500D01*
Y3962400D01*
X8318500D01*
G01X8631800Y4450000D02*
Y4528700D01*
X8656200D01*
X8664000Y4524800D01*
X8668800Y4519500D01*
X8670800Y4509000D01*
X8668800Y4498500D01*
X8663000Y4492000D01*
X8656200Y4488000D01*
X8631800D01*
G01X8656200D02*
X8670800Y4450000D01*
G01X8730000D02*
Y4528700D01*
X8718300Y4513000D01*
G01Y4450000D02*
X8741700D01*
G01X8790200Y4515600D02*
X8796000Y4523500D01*
X8802900Y4527400D01*
X8810600Y4528700D01*
X8820400Y4526100D01*
X8827200Y4519500D01*
X8829100Y4511600D01*
X8828200Y4503800D01*
X8824300Y4497200D01*
X8804800Y4484100D01*
X8796000Y4474900D01*
X8790200Y4461800D01*
X8788300Y4450000D01*
X8829100D01*
G01X9627000Y2873000D02*
X9373000D01*
Y3381000D01*
X9627000D01*
Y2873000D01*
G01X9471100Y3635700D02*
X9476000Y3627900D01*
X9481800Y3622600D01*
X9488700Y3620000D01*
X9496400Y3622600D01*
X9502300Y3627900D01*
X9508100Y3635700D01*
X9510100Y3646200D01*
Y3698700D01*
G01X9550800Y3685600D02*
X9556600Y3693500D01*
X9563500Y3697400D01*
X9571200Y3698700D01*
X9581000Y3696100D01*
X9587800Y3689500D01*
X9589700Y3681600D01*
X9588800Y3673800D01*
X9584900Y3667200D01*
X9565400Y3654100D01*
X9556600Y3644900D01*
X9550800Y3631800D01*
X9548900Y3620000D01*
X9589700D01*
G01X9017000Y6197600D02*
Y5486400D01*
X8763000D01*
Y6197600D01*
X9017000D01*
G01X9091800Y5920000D02*
Y5998700D01*
X9116200D01*
X9124000Y5994800D01*
X9128800Y5989500D01*
X9130800Y5979000D01*
X9128800Y5968500D01*
X9123000Y5962000D01*
X9116200Y5958000D01*
X9091800D01*
G01X9116200D02*
X9130800Y5920000D01*
G01X9190000D02*
Y5998700D01*
X9178300Y5983000D01*
G01Y5920000D02*
X9201700D01*
G01X9268700D02*
Y5998700D01*
X9257000Y5983000D01*
G01Y5920000D02*
X9280400D01*
M02*
